<svg width="86" height="20" viewBox="0 0 86 20" fill="none" xmlns="http://www.w3.org/2000/svg">
<path d="M85 0.99881L23.5465 17.0169C18.4505 18.3367 14.17 18.9988 10.7084 18.9988C6.78839 18.9988 3.94287 18.1589 2.17886 16.477C1.06935 15.3971 0.743846 14.028 1.19885 12.3675C1.65385 10.7069 2.86486 8.93929 4.82488 7.05809C6.45939 5.53684 9.13691 3.53779 12.8644 1.0588C11.6001 2.27723 10.673 3.61505 10.1204 5.01833C9.14041 7.57874 10.0224 9.4578 12.7664 10.6577C14.0719 11.2169 15.8675 11.4976 18.1565 11.4976C19.9835 11.4976 22.0415 11.3176 24.3305 10.9576L85 0.99881Z" fill="black" stroke="black"/>
</svg>
